<svg width="15" height="15" viewBox="0 0 15 15" fill="none" xmlns="http://www.w3.org/2000/svg">
<path d="M7.49785 14.73C11.3973 14.73 14.5696 11.5577 14.5696 7.65825C14.5696 3.75877 11.3973 0.58652 7.49785 0.58652C3.59837 0.586519 0.426121 3.75877 0.42612 7.65825C0.42612 11.5577 3.59837 14.73 7.49785 14.73ZM5.9026 5.12834C5.67218 4.89793 5.67218 4.52547 5.9026 4.29506C6.01751 4.18015 6.16837 4.12238 6.31925 4.12238C6.4701 4.12238 6.62098 4.18015 6.7359 4.29506L9.68243 7.2416C9.91285 7.47201 9.91285 7.84446 9.68243 8.07487L6.73587 11.0214C6.50546 11.2518 6.13301 11.2518 5.90259 11.0214C5.67218 10.791 5.67218 10.4186 5.90259 10.1882L8.43251 7.65825L5.9026 5.12834Z" fill="black"/>
</svg>
