<svg width="22" height="22" viewBox="0 0 22 22" fill="none" xmlns="http://www.w3.org/2000/svg">
<g clip-path="url(#clip0)">
<path d="M15.9097 5.3033C12.9853 2.37888 8.22756 2.37888 5.30314 5.3033C2.37873 8.22772 2.37873 12.9855 5.30314 15.9099C8.22756 18.8343 12.9857 18.8339 15.9097 15.9099C18.8338 12.9859 18.8342 8.22772 15.9097 5.3033ZM6.12472 15.0883C3.65382 12.6174 3.6534 8.59619 6.12472 6.12488C8.59604 3.65356 12.6173 3.65397 15.0882 6.12488C17.5591 8.59578 17.5595 12.617 15.0882 15.0883C12.6169 17.5596 8.59604 17.5596 6.12472 15.0883Z" fill="white"/>
<path d="M13.1083 12.2128L11.4652 10.5696L13.1083 8.92648C13.3351 8.69973 13.3355 8.33206 13.1083 8.10489C12.8811 7.87772 12.5135 7.87813 12.2867 8.10489L10.6436 9.74804L9.0004 8.10489C8.77323 7.87772 8.40556 7.87813 8.1788 8.10489C7.95205 8.33165 7.95163 8.69931 8.1788 8.92648L9.82196 10.5696L8.1788 12.2128C7.95205 12.4395 7.95163 12.8072 8.1788 13.0344C8.40598 13.2616 8.77364 13.2611 9.0004 13.0344L10.6436 11.3912L12.2867 13.0344C12.5139 13.2616 12.8815 13.2611 13.1083 13.0344C13.3351 12.8076 13.3355 12.44 13.1083 12.2128Z" fill="white"/>
</g>
<defs>
<clipPath id="clip0">
<rect width="15" height="15" fill="white" transform="translate(10.6064) rotate(45)"/>
</clipPath>
</defs>
</svg>
