<svg width="18" height="18" viewBox="0 0 18 18" fill="none" xmlns="http://www.w3.org/2000/svg">
<path d="M8.47266 18H4.21875C1.89253 18 0 16.1075 0 13.7812V4.21875C0 1.89253 1.89253 0 4.21875 0H8.47266C10.7989 0 12.6914 1.89253 12.6914 4.21875V4.92188C12.6914 5.31021 12.3766 5.625 11.9883 5.625C11.5999 5.625 11.2852 5.31021 11.2852 4.92188V4.21875C11.2852 2.66794 10.0235 1.40625 8.47266 1.40625H4.21875C2.66794 1.40625 1.40625 2.66794 1.40625 4.21875V13.7812C1.40625 15.3321 2.66794 16.5938 4.21875 16.5938H8.47266C10.0235 16.5938 11.2852 15.3321 11.2852 13.7812V13.0781C11.2852 12.6898 11.5999 12.375 11.9883 12.375C12.3766 12.375 12.6914 12.6898 12.6914 13.0781V13.7812C12.6914 16.1075 10.7989 18 8.47266 18Z" fill="white"/>
<path d="M15.2578 12.375C15.0775 12.375 14.8973 12.3061 14.76 12.1683C14.4857 11.8934 14.4863 11.4482 14.7613 11.174L16.3886 9.55096C16.5209 9.41909 16.5937 9.24401 16.5937 9.05793C16.5937 8.87248 16.5214 8.69797 16.3901 8.56631L14.7651 6.97039C14.4881 6.69828 14.4841 6.25313 14.7561 5.97607C15.0282 5.69904 15.4734 5.69499 15.7505 5.96707L17.3778 7.5653C17.3791 7.56653 17.3803 7.56777 17.3816 7.56903C17.7803 7.96661 18 8.4954 18 9.05793C17.9999 9.62047 17.7803 10.1492 17.3815 10.5468L15.7543 12.1697C15.6171 12.3065 15.4374 12.375 15.2578 12.375ZM15.2227 8.99996C15.2227 8.61162 14.9079 8.29683 14.5195 8.29683H6.92578C6.53745 8.29683 6.22266 8.61162 6.22266 8.99996C6.22266 9.38829 6.53745 9.70308 6.92578 9.70308H14.5195C14.9079 9.70308 15.2227 9.38829 15.2227 8.99996Z" fill="white"/>
</svg>
