<svg width="148" height="51" viewBox="0 0 148 51" fill="none" xmlns="http://www.w3.org/2000/svg">
<rect width="148" height="50.6739" rx="12.0652" fill="#F97A7A"/>
<path d="M18.5198 29.363C18.5198 29.545 18.4548 29.6967 18.3248 29.818C18.1948 29.9393 18.0431 30 17.8698 30C17.6791 30 17.5231 29.9393 17.4018 29.818C17.2891 29.6967 17.2328 29.545 17.2328 29.363V21.524C17.2328 21.3507 17.2935 21.2033 17.4148 21.082C17.5361 20.9607 17.6921 20.9 17.8828 20.9C18.0561 20.9 18.2035 20.9607 18.3248 21.082C18.4548 21.2033 18.5198 21.3507 18.5198 21.524V29.363ZM23.9882 23.032C25.5482 23.032 26.3282 23.968 26.3282 25.84V29.376C26.3282 29.5493 26.2676 29.6967 26.1462 29.818C26.0336 29.9393 25.8862 30 25.7042 30C25.5309 30 25.3836 29.9393 25.2622 29.818C25.1496 29.6967 25.0932 29.5493 25.0932 29.376V25.853C25.0932 25.3417 24.9762 24.9343 24.7422 24.631C24.5082 24.3277 24.1269 24.176 23.5982 24.176C23.2516 24.176 22.9352 24.254 22.6492 24.41C22.3719 24.5573 22.1509 24.761 21.9862 25.021C21.8302 25.2723 21.7522 25.5497 21.7522 25.853V29.376C21.7522 29.5493 21.6916 29.6967 21.5702 29.818C21.4576 29.9393 21.3102 30 21.1282 30C20.9462 30 20.7989 29.9437 20.6862 29.831C20.5736 29.7097 20.5172 29.558 20.5172 29.376V23.812C20.5172 23.6387 20.5736 23.4913 20.6862 23.37C20.8076 23.2487 20.9549 23.188 21.1282 23.188C21.3102 23.188 21.4576 23.2487 21.5702 23.37C21.6916 23.4913 21.7522 23.6387 21.7522 23.812V24.267C21.9776 23.9203 22.2896 23.63 22.6882 23.396C23.0956 23.1533 23.5289 23.032 23.9882 23.032ZM31.1365 23.032C31.8212 23.032 32.3888 23.1403 32.8395 23.357C33.2988 23.5737 33.5285 23.851 33.5285 24.189C33.5285 24.3363 33.4808 24.4707 33.3855 24.592C33.2902 24.7047 33.1688 24.761 33.0215 24.761C32.9088 24.761 32.8178 24.7437 32.7485 24.709C32.6878 24.6743 32.6012 24.618 32.4885 24.54C32.4365 24.488 32.3542 24.4273 32.2415 24.358C32.1375 24.306 31.9902 24.2627 31.7995 24.228C31.6088 24.1933 31.4355 24.176 31.2795 24.176C30.8288 24.176 30.4302 24.28 30.0835 24.488C29.7368 24.696 29.4682 24.9863 29.2775 25.359C29.0868 25.723 28.9915 26.1303 28.9915 26.581C28.9915 27.0403 29.0825 27.452 29.2645 27.816C29.4552 28.18 29.7195 28.466 30.0575 28.674C30.3955 28.882 30.7812 28.986 31.2145 28.986C31.6652 28.986 32.0292 28.9167 32.3065 28.778C32.3672 28.7433 32.4495 28.687 32.5535 28.609C32.6402 28.5397 32.7138 28.4877 32.7745 28.453C32.8438 28.4183 32.9262 28.401 33.0215 28.401C33.1948 28.401 33.3292 28.4573 33.4245 28.57C33.5285 28.674 33.5805 28.8127 33.5805 28.986C33.5805 29.168 33.4635 29.35 33.2295 29.532C33.0042 29.7053 32.6965 29.8483 32.3065 29.961C31.9252 30.0737 31.5135 30.13 31.0715 30.13C30.4128 30.13 29.8322 29.9783 29.3295 29.675C28.8268 29.363 28.4368 28.9383 28.1595 28.401C27.8908 27.855 27.7565 27.2483 27.7565 26.581C27.7565 25.9137 27.8995 25.3113 28.1855 24.774C28.4715 24.228 28.8702 23.8033 29.3815 23.5C29.8928 23.188 30.4778 23.032 31.1365 23.032ZM41.2982 26.594C41.2982 27.27 41.1466 27.8767 40.8432 28.414C40.5399 28.9513 40.1239 29.3717 39.5952 29.675C39.0752 29.9783 38.4989 30.13 37.8662 30.13C37.2336 30.13 36.6529 29.9783 36.1242 29.675C35.6042 29.3717 35.1926 28.9513 34.8892 28.414C34.5859 27.8767 34.4342 27.27 34.4342 26.594C34.4342 25.918 34.5859 25.307 34.8892 24.761C35.1926 24.215 35.6042 23.7903 36.1242 23.487C36.6529 23.1837 37.2336 23.032 37.8662 23.032C38.4989 23.032 39.0752 23.1837 39.5952 23.487C40.1239 23.7903 40.5399 24.215 40.8432 24.761C41.1466 25.307 41.2982 25.918 41.2982 26.594ZM40.0632 26.594C40.0632 26.126 39.9636 25.71 39.7642 25.346C39.5736 24.9733 39.3092 24.6873 38.9712 24.488C38.6419 24.28 38.2736 24.176 37.8662 24.176C37.4589 24.176 37.0862 24.28 36.7482 24.488C36.4189 24.6873 36.1546 24.9733 35.9552 25.346C35.7646 25.71 35.6692 26.126 35.6692 26.594C35.6692 27.0533 35.7646 27.465 35.9552 27.829C36.1546 28.193 36.4189 28.479 36.7482 28.687C37.0862 28.8863 37.4589 28.986 37.8662 28.986C38.2736 28.986 38.6419 28.8863 38.9712 28.687C39.3092 28.479 39.5736 28.193 39.7642 27.829C39.9636 27.465 40.0632 27.0533 40.0632 26.594ZM46.127 23.032C46.3524 23.032 46.5474 23.0927 46.712 23.214C46.8767 23.3267 46.959 23.4697 46.959 23.643C46.959 23.851 46.9027 24.0113 46.79 24.124C46.686 24.228 46.556 24.28 46.4 24.28C46.322 24.28 46.205 24.254 46.049 24.202C45.867 24.1413 45.724 24.111 45.62 24.111C45.3514 24.111 45.087 24.2063 44.827 24.397C44.5757 24.579 44.3677 24.8347 44.203 25.164C44.047 25.4847 43.969 25.8443 43.969 26.243V29.376C43.969 29.5493 43.9084 29.6967 43.787 29.818C43.6744 29.9393 43.527 30 43.345 30C43.163 30 43.0157 29.9437 42.903 29.831C42.7904 29.7097 42.734 29.558 42.734 29.376V23.812C42.734 23.6387 42.7904 23.4913 42.903 23.37C43.0244 23.2487 43.1717 23.188 43.345 23.188C43.527 23.188 43.6744 23.2487 43.787 23.37C43.9084 23.4913 43.969 23.6387 43.969 23.812V24.475C44.1597 24.0503 44.4457 23.708 44.827 23.448C45.2084 23.1793 45.6417 23.0407 46.127 23.032ZM51.4972 23.032C51.7225 23.032 51.9175 23.0927 52.0822 23.214C52.2468 23.3267 52.3292 23.4697 52.3292 23.643C52.3292 23.851 52.2728 24.0113 52.1602 24.124C52.0562 24.228 51.9262 24.28 51.7702 24.28C51.6922 24.28 51.5752 24.254 51.4192 24.202C51.2372 24.1413 51.0942 24.111 50.9902 24.111C50.7215 24.111 50.4572 24.2063 50.1972 24.397C49.9458 24.579 49.7378 24.8347 49.5732 25.164C49.4172 25.4847 49.3392 25.8443 49.3392 26.243V29.376C49.3392 29.5493 49.2785 29.6967 49.1572 29.818C49.0445 29.9393 48.8972 30 48.7152 30C48.5332 30 48.3858 29.9437 48.2732 29.831C48.1605 29.7097 48.1042 29.558 48.1042 29.376V23.812C48.1042 23.6387 48.1605 23.4913 48.2732 23.37C48.3945 23.2487 48.5418 23.188 48.7152 23.188C48.8972 23.188 49.0445 23.2487 49.1572 23.37C49.2785 23.4913 49.3392 23.6387 49.3392 23.812V24.475C49.5298 24.0503 49.8158 23.708 50.1972 23.448C50.5785 23.1793 51.0118 23.0407 51.4972 23.032ZM59.1623 26.334C59.1536 26.49 59.0886 26.6243 58.9673 26.737C58.8459 26.841 58.7029 26.893 58.5383 26.893H53.9623C54.0229 27.5257 54.2613 28.0327 54.6773 28.414C55.1019 28.7953 55.6176 28.986 56.2243 28.986C56.6403 28.986 56.9783 28.9253 57.2383 28.804C57.4983 28.6827 57.7279 28.5267 57.9273 28.336C58.0573 28.258 58.1829 28.219 58.3043 28.219C58.4516 28.219 58.5729 28.271 58.6683 28.375C58.7723 28.479 58.8243 28.6003 58.8243 28.739C58.8243 28.921 58.7376 29.0857 58.5643 29.233C58.3129 29.4843 57.9793 29.6967 57.5633 29.87C57.1473 30.0433 56.7226 30.13 56.2893 30.13C55.5873 30.13 54.9676 29.9827 54.4303 29.688C53.9016 29.3933 53.4899 28.9817 53.1953 28.453C52.9093 27.9243 52.7663 27.3263 52.7663 26.659C52.7663 25.931 52.9136 25.294 53.2083 24.748C53.5116 24.1933 53.9059 23.7687 54.3913 23.474C54.8853 23.1793 55.4139 23.032 55.9773 23.032C56.5319 23.032 57.0519 23.175 57.5373 23.461C58.0226 23.747 58.4126 24.1413 58.7073 24.644C59.0019 25.1467 59.1536 25.71 59.1623 26.334ZM55.9773 24.176C55.4919 24.176 55.0716 24.3147 54.7163 24.592C54.3609 24.8607 54.1269 25.281 54.0143 25.853H57.8493V25.749C57.8059 25.2897 57.5979 24.9127 57.2253 24.618C56.8613 24.3233 56.4453 24.176 55.9773 24.176ZM63.5603 23.032C64.245 23.032 64.8127 23.1403 65.2633 23.357C65.7227 23.5737 65.9523 23.851 65.9523 24.189C65.9523 24.3363 65.9047 24.4707 65.8093 24.592C65.714 24.7047 65.5927 24.761 65.4453 24.761C65.3327 24.761 65.2417 24.7437 65.1723 24.709C65.1117 24.6743 65.025 24.618 64.9123 24.54C64.8603 24.488 64.778 24.4273 64.6653 24.358C64.5613 24.306 64.414 24.2627 64.2233 24.228C64.0327 24.1933 63.8593 24.176 63.7033 24.176C63.2527 24.176 62.854 24.28 62.5073 24.488C62.1607 24.696 61.892 24.9863 61.7013 25.359C61.5107 25.723 61.4153 26.1303 61.4153 26.581C61.4153 27.0403 61.5063 27.452 61.6883 27.816C61.879 28.18 62.1433 28.466 62.4813 28.674C62.8193 28.882 63.205 28.986 63.6383 28.986C64.089 28.986 64.453 28.9167 64.7303 28.778C64.791 28.7433 64.8733 28.687 64.9773 28.609C65.064 28.5397 65.1377 28.4877 65.1983 28.453C65.2677 28.4183 65.35 28.401 65.4453 28.401C65.6187 28.401 65.753 28.4573 65.8483 28.57C65.9523 28.674 66.0043 28.8127 66.0043 28.986C66.0043 29.168 65.8873 29.35 65.6533 29.532C65.428 29.7053 65.1203 29.8483 64.7303 29.961C64.349 30.0737 63.9373 30.13 63.4953 30.13C62.8367 30.13 62.256 29.9783 61.7533 29.675C61.2507 29.363 60.8607 28.9383 60.5833 28.401C60.3147 27.855 60.1803 27.2483 60.1803 26.581C60.1803 25.9137 60.3233 25.3113 60.6093 24.774C60.8953 24.228 61.294 23.8033 61.8053 23.5C62.3167 23.188 62.9017 23.032 63.5603 23.032ZM69.1201 24.397V28.271C69.1201 28.7043 69.3151 28.921 69.7051 28.921C69.7657 28.921 69.8481 28.908 69.9521 28.882C70.0561 28.8473 70.1384 28.83 70.1991 28.83C70.3117 28.83 70.4071 28.8777 70.4851 28.973C70.5631 29.0683 70.6021 29.1897 70.6021 29.337C70.6021 29.519 70.4981 29.675 70.2901 29.805C70.0821 29.935 69.8481 30 69.5881 30C69.3021 30 69.0377 29.9697 68.7951 29.909C68.5611 29.8483 68.3487 29.6967 68.1581 29.454C67.9761 29.2027 67.8851 28.8257 67.8851 28.323V24.397H67.1311C66.9664 24.397 66.8277 24.345 66.7151 24.241C66.6111 24.1283 66.5591 23.9897 66.5591 23.825C66.5591 23.6603 66.6111 23.526 66.7151 23.422C66.8277 23.318 66.9664 23.266 67.1311 23.266H67.8851V22.174C67.8851 22.0007 67.9414 21.8533 68.0541 21.732C68.1754 21.6107 68.3271 21.55 68.5091 21.55C68.6824 21.55 68.8254 21.6107 68.9381 21.732C69.0594 21.8533 69.1201 22.0007 69.1201 22.174V23.266H70.1991C70.3637 23.266 70.4981 23.3223 70.6021 23.435C70.7147 23.539 70.7711 23.6733 70.7711 23.838C70.7711 24.0027 70.7147 24.137 70.6021 24.241C70.4981 24.345 70.3637 24.397 70.1991 24.397H69.1201ZM77.157 29.376C77.157 29.5493 77.0964 29.6967 76.975 29.818C76.8537 29.9393 76.7064 30 76.533 30C76.3597 30 76.2124 29.9393 76.091 29.818C75.9784 29.6967 75.922 29.5493 75.922 29.376V21.004C75.922 20.8307 75.9827 20.6833 76.104 20.562C76.2254 20.4407 76.3727 20.38 76.546 20.38C76.7194 20.38 76.8624 20.4407 76.975 20.562C77.0964 20.6833 77.157 20.8307 77.157 21.004V29.376ZM85.4272 26.594C85.4272 27.27 85.2755 27.8767 84.9722 28.414C84.6688 28.9513 84.2528 29.3717 83.7242 29.675C83.2042 29.9783 82.6278 30.13 81.9952 30.13C81.3625 30.13 80.7818 29.9783 80.2532 29.675C79.7332 29.3717 79.3215 28.9513 79.0182 28.414C78.7148 27.8767 78.5632 27.27 78.5632 26.594C78.5632 25.918 78.7148 25.307 79.0182 24.761C79.3215 24.215 79.7332 23.7903 80.2532 23.487C80.7818 23.1837 81.3625 23.032 81.9952 23.032C82.6278 23.032 83.2042 23.1837 83.7242 23.487C84.2528 23.7903 84.6688 24.215 84.9722 24.761C85.2755 25.307 85.4272 25.918 85.4272 26.594ZM84.1922 26.594C84.1922 26.126 84.0925 25.71 83.8932 25.346C83.7025 24.9733 83.4382 24.6873 83.1002 24.488C82.7708 24.28 82.4025 24.176 81.9952 24.176C81.5878 24.176 81.2152 24.28 80.8772 24.488C80.5478 24.6873 80.2835 24.9733 80.0842 25.346C79.8935 25.71 79.7982 26.126 79.7982 26.594C79.7982 27.0533 79.8935 27.465 80.0842 27.829C80.2835 28.193 80.5478 28.479 80.8772 28.687C81.2152 28.8863 81.5878 28.986 81.9952 28.986C82.4025 28.986 82.7708 28.8863 83.1002 28.687C83.4382 28.479 83.7025 28.193 83.8932 27.829C84.0925 27.465 84.1922 27.0533 84.1922 26.594ZM92.5569 23.097C92.7389 23.097 92.8863 23.1577 92.9989 23.279C93.1203 23.3917 93.1809 23.5433 93.1809 23.734V29.454C93.1809 30.156 93.0293 30.741 92.7259 31.209C92.4313 31.6857 92.0283 32.0367 91.5169 32.262C91.0056 32.4873 90.4293 32.6 89.7879 32.6C89.4413 32.6 89.0339 32.5393 88.5659 32.418C88.1066 32.2967 87.8119 32.171 87.6819 32.041C87.4133 31.9023 87.2789 31.729 87.2789 31.521C87.2789 31.469 87.2963 31.3997 87.3309 31.313C87.4263 31.0963 87.5866 30.988 87.8119 30.988C87.9246 30.988 88.0459 31.014 88.1759 31.066C88.8693 31.3347 89.4109 31.469 89.8009 31.469C90.4943 31.469 91.0229 31.3 91.3869 30.962C91.7596 30.6327 91.9459 30.1777 91.9459 29.597V28.895C91.7639 29.233 91.4563 29.5233 91.0229 29.766C90.5983 30.0087 90.1476 30.13 89.6709 30.13C89.0729 30.13 88.5269 29.9783 88.0329 29.675C87.5389 29.3717 87.1489 28.9513 86.8629 28.414C86.5856 27.868 86.4469 27.257 86.4469 26.581C86.4469 25.905 86.5856 25.2983 86.8629 24.761C87.1489 24.215 87.5346 23.7903 88.0199 23.487C88.5139 23.1837 89.0556 23.032 89.6449 23.032C90.1216 23.032 90.5636 23.1403 90.9709 23.357C91.3869 23.5737 91.7119 23.838 91.9459 24.15V23.734C91.9459 23.552 92.0023 23.4003 92.1149 23.279C92.2276 23.1577 92.3749 23.097 92.5569 23.097ZM89.8139 28.986C90.2386 28.986 90.6156 28.8863 90.9449 28.687C91.2743 28.479 91.5299 28.193 91.7119 27.829C91.9026 27.4563 91.9979 27.0403 91.9979 26.581C91.9979 26.1217 91.9026 25.71 91.7119 25.346C91.5299 24.982 91.2743 24.696 90.9449 24.488C90.6156 24.28 90.2386 24.176 89.8139 24.176C89.3979 24.176 89.0253 24.28 88.6959 24.488C88.3666 24.696 88.1066 24.9863 87.9159 25.359C87.7339 25.723 87.6429 26.1303 87.6429 26.581C87.6429 27.0317 87.7339 27.4433 87.9159 27.816C88.1066 28.18 88.3666 28.466 88.6959 28.674C89.0253 28.882 89.3979 28.986 89.8139 28.986ZM96.1833 29.376C96.1833 29.5493 96.1227 29.6967 96.0013 29.818C95.8887 29.9393 95.7413 30 95.5593 30C95.386 30 95.2387 29.9393 95.1173 29.818C95.0047 29.6967 94.9483 29.5493 94.9483 29.376V23.747C94.9483 23.5737 95.0047 23.4263 95.1173 23.305C95.2387 23.1837 95.386 23.123 95.5593 23.123C95.7413 23.123 95.8887 23.1837 96.0013 23.305C96.1227 23.4263 96.1833 23.5737 96.1833 23.747V29.376ZM95.5593 22.265C95.308 22.265 95.126 22.2217 95.0133 22.135C94.9093 22.0397 94.8573 21.8923 94.8573 21.693V21.485C94.8573 21.277 94.9137 21.1297 95.0263 21.043C95.1477 20.9563 95.3297 20.913 95.5723 20.913C95.815 20.913 95.9883 20.9607 96.0923 21.056C96.205 21.1427 96.2613 21.2857 96.2613 21.485V21.693C96.2613 21.901 96.205 22.0483 96.0923 22.135C95.9797 22.2217 95.802 22.265 95.5593 22.265ZM101.43 23.032C102.99 23.032 103.77 23.968 103.77 25.84V29.376C103.77 29.5493 103.709 29.6967 103.588 29.818C103.475 29.9393 103.328 30 103.146 30C102.972 30 102.825 29.9393 102.704 29.818C102.591 29.6967 102.535 29.5493 102.535 29.376V25.853C102.535 25.3417 102.418 24.9343 102.184 24.631C101.95 24.3277 101.568 24.176 101.04 24.176C100.693 24.176 100.377 24.254 100.091 24.41C99.8133 24.5573 99.5923 24.761 99.4276 25.021C99.2716 25.2723 99.1936 25.5497 99.1936 25.853V29.376C99.1936 29.5493 99.133 29.6967 99.0116 29.818C98.899 29.9393 98.7516 30 98.5696 30C98.3876 30 98.2403 29.9437 98.1276 29.831C98.015 29.7097 97.9586 29.558 97.9586 29.376V23.812C97.9586 23.6387 98.015 23.4913 98.1276 23.37C98.249 23.2487 98.3963 23.188 98.5696 23.188C98.7516 23.188 98.899 23.2487 99.0116 23.37C99.133 23.4913 99.1936 23.6387 99.1936 23.812V24.267C99.419 23.9203 99.731 23.63 100.13 23.396C100.537 23.1533 100.97 23.032 101.43 23.032ZM110.389 29.376C110.389 29.5493 110.329 29.6967 110.207 29.818C110.095 29.9393 109.947 30 109.765 30C109.592 30 109.445 29.9393 109.323 29.818C109.211 29.6967 109.154 29.5493 109.154 29.376V23.747C109.154 23.5737 109.211 23.4263 109.323 23.305C109.445 23.1837 109.592 23.123 109.765 23.123C109.947 23.123 110.095 23.1837 110.207 23.305C110.329 23.4263 110.389 23.5737 110.389 23.747V29.376ZM109.765 22.265C109.514 22.265 109.332 22.2217 109.219 22.135C109.115 22.0397 109.063 21.8923 109.063 21.693V21.485C109.063 21.277 109.12 21.1297 109.232 21.043C109.354 20.9563 109.536 20.913 109.778 20.913C110.021 20.913 110.194 20.9607 110.298 21.056C110.411 21.1427 110.467 21.2857 110.467 21.485V21.693C110.467 21.901 110.411 22.0483 110.298 22.135C110.186 22.2217 110.008 22.265 109.765 22.265ZM115.636 23.032C117.196 23.032 117.976 23.968 117.976 25.84V29.376C117.976 29.5493 117.915 29.6967 117.794 29.818C117.681 29.9393 117.534 30 117.352 30C117.178 30 117.031 29.9393 116.91 29.818C116.797 29.6967 116.741 29.5493 116.741 29.376V25.853C116.741 25.3417 116.624 24.9343 116.39 24.631C116.156 24.3277 115.774 24.176 115.246 24.176C114.899 24.176 114.583 24.254 114.297 24.41C114.019 24.5573 113.798 24.761 113.634 25.021C113.478 25.2723 113.4 25.5497 113.4 25.853V29.376C113.4 29.5493 113.339 29.6967 113.218 29.818C113.105 29.9393 112.958 30 112.776 30C112.594 30 112.446 29.9437 112.334 29.831C112.221 29.7097 112.165 29.558 112.165 29.376V23.812C112.165 23.6387 112.221 23.4913 112.334 23.37C112.455 23.2487 112.602 23.188 112.776 23.188C112.958 23.188 113.105 23.2487 113.218 23.37C113.339 23.4913 113.4 23.6387 113.4 23.812V24.267C113.625 23.9203 113.937 23.63 114.336 23.396C114.743 23.1533 115.176 23.032 115.636 23.032ZM122.732 21.498C122.446 21.498 122.234 21.5847 122.095 21.758C121.965 21.9313 121.9 22.1437 121.9 22.395V23.305H123.187C123.36 23.305 123.499 23.3613 123.603 23.474C123.716 23.578 123.772 23.7123 123.772 23.877C123.772 24.0417 123.716 24.176 123.603 24.28C123.499 24.384 123.36 24.436 123.187 24.436H121.9V29.376C121.9 29.5493 121.839 29.6967 121.718 29.818C121.605 29.9393 121.458 30 121.276 30C121.103 30 120.955 29.9393 120.834 29.818C120.721 29.6967 120.665 29.5493 120.665 29.376V24.436H119.859C119.694 24.436 119.556 24.384 119.443 24.28C119.33 24.176 119.274 24.0417 119.274 23.877C119.274 23.7123 119.33 23.578 119.443 23.474C119.556 23.3613 119.694 23.305 119.859 23.305H120.665V22.395C120.665 21.7883 120.86 21.3073 121.25 20.952C121.64 20.588 122.19 20.406 122.901 20.406C123.196 20.406 123.456 20.4623 123.681 20.575C123.906 20.679 124.019 20.8393 124.019 21.056C124.019 21.2207 123.967 21.3593 123.863 21.472C123.768 21.576 123.651 21.628 123.512 21.628C123.477 21.628 123.382 21.6107 123.226 21.576C123.035 21.524 122.871 21.498 122.732 21.498ZM131.333 26.594C131.333 27.27 131.182 27.8767 130.878 28.414C130.575 28.9513 130.159 29.3717 129.63 29.675C129.11 29.9783 128.534 30.13 127.901 30.13C127.269 30.13 126.688 29.9783 126.159 29.675C125.639 29.3717 125.228 28.9513 124.924 28.414C124.621 27.8767 124.469 27.27 124.469 26.594C124.469 25.918 124.621 25.307 124.924 24.761C125.228 24.215 125.639 23.7903 126.159 23.487C126.688 23.1837 127.269 23.032 127.901 23.032C128.534 23.032 129.11 23.1837 129.63 23.487C130.159 23.7903 130.575 24.215 130.878 24.761C131.182 25.307 131.333 25.918 131.333 26.594ZM130.098 26.594C130.098 26.126 129.999 25.71 129.799 25.346C129.609 24.9733 129.344 24.6873 129.006 24.488C128.677 24.28 128.309 24.176 127.901 24.176C127.494 24.176 127.121 24.28 126.783 24.488C126.454 24.6873 126.19 24.9733 125.99 25.346C125.8 25.71 125.704 26.126 125.704 26.594C125.704 27.0533 125.8 27.465 125.99 27.829C126.19 28.193 126.454 28.479 126.783 28.687C127.121 28.8863 127.494 28.986 127.901 28.986C128.309 28.986 128.677 28.8863 129.006 28.687C129.344 28.479 129.609 28.193 129.799 27.829C129.999 27.465 130.098 27.0533 130.098 26.594Z" fill="white"/>
</svg>
