<svg width="84" height="27" viewBox="0 0 84 27" fill="none" xmlns="http://www.w3.org/2000/svg">
<path d="M19.1584 0.799998C19.8064 0.799998 20.3344 0.991999 20.7424 1.376C21.1504 1.76 21.3544 2.264 21.3544 2.888C21.3544 3.512 21.1504 4.016 20.7424 4.4C20.3344 4.76 19.8064 4.94 19.1584 4.94H13.5064V23.804C13.5064 24.428 13.2784 24.956 12.8224 25.388C12.3664 25.796 11.8024 26 11.1304 26C10.4584 26 9.90644 25.796 9.47444 25.388C9.04244 24.956 8.82644 24.428 8.82644 23.804V4.94H3.17444C2.52644 4.94 1.99844 4.748 1.59044 4.364C1.18244 3.98 0.978438 3.476 0.978438 2.852C0.978438 2.252 1.18244 1.76 1.59044 1.376C2.02244 0.991999 2.55044 0.799998 3.17444 0.799998H19.1584ZM34.7414 6.74C35.3654 6.74 35.8814 6.956 36.2894 7.388C36.6974 7.796 36.9014 8.312 36.9014 8.936V18.08C36.9014 20.672 36.1814 22.7 34.7414 24.164C33.3254 25.628 31.2974 26.36 28.6574 26.36C26.0174 26.36 23.9894 25.628 22.5734 24.164C21.1574 22.7 20.4494 20.672 20.4494 18.08V8.936C20.4494 8.312 20.6534 7.796 21.0614 7.388C21.4694 6.956 21.9854 6.74 22.6094 6.74C23.2334 6.74 23.7494 6.956 24.1574 7.388C24.5654 7.796 24.7694 8.312 24.7694 8.936V18.08C24.7694 19.544 25.0934 20.636 25.7414 21.356C26.3894 22.052 27.3614 22.4 28.6574 22.4C29.9774 22.4 30.9614 22.052 31.6094 21.356C32.2574 20.636 32.5814 19.544 32.5814 18.08V8.936C32.5814 8.312 32.7854 7.796 33.1934 7.388C33.6014 6.956 34.1174 6.74 34.7414 6.74Z" fill="black"/>
<path d="M52.7383 0.799998C54.9943 0.799998 56.9263 1.364 58.5343 2.492C60.1663 3.596 61.4023 5.108 62.2423 7.028C63.1063 8.924 63.5383 11.048 63.5383 13.4C63.5383 15.752 63.1063 17.888 62.2423 19.808C61.4023 21.704 60.1663 23.216 58.5343 24.344C56.9263 25.448 54.9943 26 52.7383 26H44.1343C43.5103 26 42.9823 25.796 42.5503 25.388C42.1423 24.956 41.9383 24.428 41.9383 23.804V2.996C41.9383 2.372 42.1423 1.856 42.5503 1.448C42.9823 1.016 43.5103 0.799998 44.1343 0.799998H52.7383ZM52.3783 21.86C54.5383 21.86 56.1583 21.068 57.2383 19.484C58.3183 17.876 58.8583 15.848 58.8583 13.4C58.8583 10.952 58.3063 8.936 57.2023 7.352C56.1223 5.744 54.5143 4.94 52.3783 4.94H46.4383V21.86H52.3783ZM81.6047 6.74C82.2287 6.74 82.7447 6.956 83.1527 7.388C83.5607 7.796 83.7647 8.312 83.7647 8.936V18.08C83.7647 20.672 83.0447 22.7 81.6047 24.164C80.1887 25.628 78.1607 26.36 75.5207 26.36C72.8807 26.36 70.8527 25.628 69.4367 24.164C68.0207 22.7 67.3127 20.672 67.3127 18.08V8.936C67.3127 8.312 67.5167 7.796 67.9247 7.388C68.3327 6.956 68.8487 6.74 69.4727 6.74C70.0967 6.74 70.6127 6.956 71.0207 7.388C71.4287 7.796 71.6327 8.312 71.6327 8.936V18.08C71.6327 19.544 71.9567 20.636 72.6047 21.356C73.2527 22.052 74.2247 22.4 75.5207 22.4C76.8407 22.4 77.8247 22.052 78.4727 21.356C79.1207 20.636 79.4447 19.544 79.4447 18.08V8.936C79.4447 8.312 79.6487 7.796 80.0567 7.388C80.4647 6.956 80.9807 6.74 81.6047 6.74Z" fill="#8B41EA"/>
</svg>
