<svg width="17" height="17" viewBox="0 0 17 17" fill="none" xmlns="http://www.w3.org/2000/svg">
<path d="M8.50002 16.9999C13.1871 16.9999 17 13.1869 17 8.49988C17 3.81283 13.1871 -0.000122404 8.50002 -0.000122813C3.81296 -0.000123223 1.64116e-05 3.81282 1.60019e-05 8.49988C1.55921e-05 13.1869 3.81296 16.9999 8.50002 16.9999ZM6.58257 5.459C6.30562 5.18205 6.30562 4.73438 6.58257 4.45743C6.72069 4.3193 6.90202 4.24988 7.08337 4.24988C7.26469 4.24988 7.44605 4.31931 7.58417 4.45743L11.1258 7.99907C11.4028 8.27602 11.4028 8.7237 11.1258 9.00065L7.58414 12.5423C7.30719 12.8193 6.85952 12.8193 6.58257 12.5423C6.30562 12.2654 6.30562 11.8177 6.58257 11.5408L9.62344 8.49988L6.58257 5.459Z" fill="white"/>
</svg>
