<svg width="148" height="51" viewBox="0 0 148 51" fill="none" xmlns="http://www.w3.org/2000/svg">
<rect width="148" height="50.6739" rx="12.0652" fill="#F97A7A"/>
<path d="M20.0424 22.1061C20.2 22.1061 20.3239 22.1587 20.414 22.2638C20.5116 22.3614 20.5604 22.489 20.5604 22.6467V26.9708C20.5604 27.5639 20.429 28.0969 20.1662 28.5699C19.9035 29.0428 19.5394 29.4144 19.0739 29.6847C18.616 29.9474 18.098 30.0788 17.5199 30.0788C16.9344 30.0788 16.4089 29.9474 15.9434 29.6847C15.478 29.4144 15.1139 29.0428 14.8511 28.5699C14.5883 28.0969 14.457 27.5639 14.457 26.9708V22.6467C14.457 22.489 14.5095 22.3614 14.6146 22.2638C14.7197 22.1587 14.8549 22.1061 15.02 22.1061C15.1626 22.1061 15.2865 22.1587 15.3916 22.2638C15.5042 22.3689 15.5605 22.4965 15.5605 22.6467V26.9708C15.5605 27.3612 15.6506 27.714 15.8308 28.0293C16.011 28.3371 16.2512 28.5774 16.5515 28.75C16.8518 28.9227 17.1746 29.009 17.5199 29.009C17.8803 29.009 18.2143 28.9227 18.5221 28.75C18.8299 28.5774 19.0739 28.3371 19.2541 28.0293C19.4418 27.714 19.5356 27.3612 19.5356 26.9708V22.6467C19.5356 22.489 19.5807 22.3614 19.6708 22.2638C19.7608 22.1587 19.8847 22.1061 20.0424 22.1061ZM21.9568 29.0766C21.8892 28.9715 21.8554 28.8702 21.8554 28.7726C21.8554 28.6224 21.9343 28.4948 22.0919 28.3897C22.167 28.3371 22.2533 28.3109 22.3509 28.3109C22.4861 28.3109 22.6099 28.3672 22.7225 28.4798C22.9478 28.735 23.188 28.9265 23.4432 29.0541C23.706 29.1817 24.0175 29.2455 24.3779 29.2455C24.6632 29.238 24.9146 29.1742 25.1324 29.0541C25.3501 28.9265 25.4589 28.7238 25.4589 28.446C25.4589 28.1908 25.3463 27.9956 25.1211 27.8604C24.9034 27.7253 24.5806 27.6014 24.1527 27.4888C23.7323 27.3762 23.3832 27.2599 23.1054 27.1397C22.8276 27.0121 22.5912 26.8319 22.396 26.5992C22.2083 26.359 22.1144 26.0474 22.1144 25.6646C22.1144 25.3267 22.2083 25.0302 22.396 24.775C22.5912 24.5197 22.8464 24.3208 23.1617 24.1781C23.4845 24.0355 23.8336 23.9642 24.209 23.9642C24.5693 23.9642 24.9259 24.0317 25.2788 24.1669C25.6391 24.302 25.9319 24.5084 26.1571 24.7862C26.2472 24.8913 26.2922 25.0002 26.2922 25.1128C26.2922 25.2329 26.2322 25.3493 26.1121 25.4619C26.037 25.5294 25.9431 25.5632 25.8305 25.5632C25.6954 25.5632 25.5865 25.5182 25.504 25.4281C25.3463 25.2479 25.1511 25.109 24.9184 25.0114C24.6932 24.9138 24.4417 24.865 24.1639 24.865C23.8786 24.865 23.6347 24.9251 23.432 25.0452C23.2368 25.1578 23.1392 25.353 23.1392 25.6308C23.1467 25.8935 23.2593 26.0887 23.477 26.2163C23.7022 26.344 24.0438 26.4678 24.5018 26.588C24.8996 26.6931 25.23 26.8057 25.4927 26.9258C25.7555 27.0459 25.9769 27.2261 26.1571 27.4663C26.3373 27.699 26.4274 28.0068 26.4274 28.3897C26.4274 28.7425 26.326 29.0503 26.1233 29.3131C25.9206 29.5683 25.6541 29.7673 25.3238 29.9099C25.001 30.045 24.6556 30.1126 24.2878 30.1126C23.8148 30.1126 23.3757 30.03 22.9703 29.8649C22.5724 29.6997 22.2346 29.437 21.9568 29.0766ZM32.8411 26.8244C32.8336 26.9596 32.7773 27.0759 32.6722 27.1735C32.5671 27.2636 32.4432 27.3087 32.3006 27.3087H28.3368C28.3893 27.8567 28.5958 28.2959 28.9561 28.6262C29.324 28.9565 29.7707 29.1217 30.2962 29.1217C30.6565 29.1217 30.9493 29.0691 31.1745 28.964C31.3997 28.8589 31.5987 28.7238 31.7713 28.5586C31.884 28.491 31.9928 28.4573 32.0979 28.4573C32.2255 28.4573 32.3306 28.5023 32.4132 28.5924C32.5033 28.6825 32.5483 28.7876 32.5483 28.9077C32.5483 29.0653 32.4733 29.208 32.3231 29.3356C32.1054 29.5533 31.8164 29.7372 31.456 29.8874C31.0957 30.0375 30.7278 30.1126 30.3525 30.1126C29.7444 30.1126 29.2076 29.985 28.7422 29.7297C28.2842 29.4745 27.9276 29.1179 27.6724 28.66C27.4247 28.202 27.3008 27.684 27.3008 27.106C27.3008 26.4753 27.4284 25.9236 27.6837 25.4506C27.9464 24.9701 28.288 24.6023 28.7084 24.347C29.1363 24.0918 29.5942 23.9642 30.0822 23.9642C30.5627 23.9642 31.0131 24.088 31.4335 24.3358C31.8539 24.5835 32.1918 24.9251 32.447 25.3605C32.7022 25.7959 32.8336 26.2839 32.8411 26.8244ZM30.0822 24.9551C29.6618 24.9551 29.2977 25.0752 28.9899 25.3155C28.6821 25.5482 28.4794 25.9123 28.3818 26.4078H31.7038V26.3177C31.6662 25.9198 31.4861 25.5932 31.1633 25.338C30.848 25.0828 30.4876 24.9551 30.0822 24.9551ZM37.0224 23.9642C37.2176 23.9642 37.3865 24.0167 37.5292 24.1218C37.6718 24.2194 37.7431 24.3433 37.7431 24.4934C37.7431 24.6736 37.6943 24.8125 37.5967 24.9101C37.5066 25.0002 37.394 25.0452 37.2589 25.0452C37.1913 25.0452 37.09 25.0227 36.9549 24.9777C36.7972 24.9251 36.6733 24.8988 36.5833 24.8988C36.3505 24.8988 36.1216 24.9814 35.8963 25.1466C35.6786 25.3042 35.4985 25.5257 35.3558 25.811C35.2207 26.0887 35.1531 26.4003 35.1531 26.7456V29.4595C35.1531 29.6096 35.1006 29.7372 34.9955 29.8423C34.8979 29.9474 34.7703 30 34.6126 30C34.455 30 34.3273 29.9512 34.2297 29.8536C34.1321 29.7485 34.0833 29.6171 34.0833 29.4595V24.6398C34.0833 24.4897 34.1321 24.3621 34.2297 24.257C34.3348 24.1519 34.4625 24.0993 34.6126 24.0993C34.7703 24.0993 34.8979 24.1519 34.9955 24.257C35.1006 24.3621 35.1531 24.4897 35.1531 24.6398V25.2141C35.3183 24.8463 35.566 24.5497 35.8963 24.3245C36.2267 24.0918 36.602 23.9717 37.0224 23.9642ZM42.8717 29.4595C42.8717 29.6096 42.8191 29.7372 42.714 29.8423C42.6164 29.9474 42.4888 30 42.3311 30C42.181 30 42.0534 29.9474 41.9483 29.8423C41.8507 29.7372 41.8019 29.6096 41.8019 29.4595V24.5835C41.8019 24.4334 41.8507 24.3058 41.9483 24.2007C42.0534 24.0956 42.181 24.043 42.3311 24.043C42.4888 24.043 42.6164 24.0956 42.714 24.2007C42.8191 24.3058 42.8717 24.4334 42.8717 24.5835V29.4595ZM42.3311 23.2998C42.1134 23.2998 41.9558 23.2622 41.8582 23.1872C41.7681 23.1046 41.7231 22.977 41.7231 22.8043V22.6241C41.7231 22.444 41.7719 22.3163 41.8694 22.2413C41.9745 22.1662 42.1322 22.1287 42.3424 22.1287C42.5526 22.1287 42.7027 22.1699 42.7928 22.2525C42.8904 22.3276 42.9392 22.4515 42.9392 22.6241V22.8043C42.9392 22.9845 42.8904 23.1121 42.7928 23.1872C42.6952 23.2622 42.5413 23.2998 42.3311 23.2998ZM47.4161 23.9642C48.7674 23.9642 49.4431 24.775 49.4431 26.3965V29.4595C49.4431 29.6096 49.3905 29.7372 49.2854 29.8423C49.1878 29.9474 49.0602 30 48.9026 30C48.7524 30 48.6248 29.9474 48.5197 29.8423C48.4221 29.7372 48.3733 29.6096 48.3733 29.4595V26.4078C48.3733 25.9649 48.272 25.612 48.0693 25.3493C47.8666 25.0865 47.5362 24.9551 47.0783 24.9551C46.778 24.9551 46.504 25.0227 46.2563 25.1578C46.016 25.2854 45.8246 25.4619 45.682 25.6871C45.5468 25.9048 45.4793 26.145 45.4793 26.4078V29.4595C45.4793 29.6096 45.4267 29.7372 45.3216 29.8423C45.224 29.9474 45.0964 30 44.9387 30C44.7811 30 44.6535 29.9512 44.5559 29.8536C44.4583 29.7485 44.4095 29.6171 44.4095 29.4595V24.6398C44.4095 24.4897 44.4583 24.3621 44.5559 24.257C44.661 24.1519 44.7886 24.0993 44.9387 24.0993C45.0964 24.0993 45.224 24.1519 45.3216 24.257C45.4267 24.3621 45.4793 24.4897 45.4793 24.6398V25.034C45.6744 24.7337 45.9447 24.4822 46.29 24.2795C46.6429 24.0693 47.0182 23.9642 47.4161 23.9642ZM53.5631 22.6354C53.3153 22.6354 53.1314 22.7105 53.0113 22.8606C52.8987 23.0108 52.8424 23.1947 52.8424 23.4124V24.2007H53.9572C54.1073 24.2007 54.2275 24.2494 54.3175 24.347C54.4151 24.4371 54.4639 24.5535 54.4639 24.6961C54.4639 24.8388 54.4151 24.9551 54.3175 25.0452C54.2275 25.1353 54.1073 25.1803 53.9572 25.1803H52.8424V29.4595C52.8424 29.6096 52.7898 29.7372 52.6847 29.8423C52.5871 29.9474 52.4595 30 52.3018 30C52.1517 30 52.0241 29.9474 51.919 29.8423C51.8214 29.7372 51.7726 29.6096 51.7726 29.4595V25.1803H51.0744C50.9318 25.1803 50.8117 25.1353 50.7141 25.0452C50.6165 24.9551 50.5677 24.8388 50.5677 24.6961C50.5677 24.5535 50.6165 24.4371 50.7141 24.347C50.8117 24.2494 50.9318 24.2007 51.0744 24.2007H51.7726V23.4124C51.7726 22.8869 51.9415 22.4702 52.2793 22.1624C52.6172 21.8471 53.0939 21.6895 53.7095 21.6895C53.9647 21.6895 54.1899 21.7383 54.3851 21.8359C54.5803 21.926 54.6779 22.0648 54.6779 22.2525C54.6779 22.3952 54.6328 22.5153 54.5428 22.6129C54.4602 22.703 54.3588 22.748 54.2387 22.748C54.2087 22.748 54.1261 22.733 53.991 22.703C53.8258 22.6579 53.6832 22.6354 53.5631 22.6354ZM61.0138 27.0497C61.0138 27.6352 60.8824 28.1607 60.6197 28.6262C60.3569 29.0916 59.9966 29.4557 59.5386 29.7185C59.0882 29.9812 58.589 30.1126 58.0409 30.1126C57.4929 30.1126 56.9899 29.9812 56.532 29.7185C56.0815 29.4557 55.7249 29.0916 55.4622 28.6262C55.1994 28.1607 55.0681 27.6352 55.0681 27.0497C55.0681 26.4641 55.1994 25.9348 55.4622 25.4619C55.7249 24.9889 56.0815 24.6211 56.532 24.3583C56.9899 24.0956 57.4929 23.9642 58.0409 23.9642C58.589 23.9642 59.0882 24.0956 59.5386 24.3583C59.9966 24.6211 60.3569 24.9889 60.6197 25.4619C60.8824 25.9348 61.0138 26.4641 61.0138 27.0497ZM59.944 27.0497C59.944 26.6443 59.8577 26.2839 59.685 25.9686C59.5199 25.6458 59.2909 25.3981 58.9981 25.2254C58.7128 25.0452 58.3938 24.9551 58.0409 24.9551C57.6881 24.9551 57.3653 25.0452 57.0725 25.2254C56.7872 25.3981 56.5582 25.6458 56.3856 25.9686C56.2204 26.2839 56.1378 26.6443 56.1378 27.0497C56.1378 27.4475 56.2204 27.8041 56.3856 28.1194C56.5582 28.4347 56.7872 28.6825 57.0725 28.8627C57.3653 29.0353 57.6881 29.1217 58.0409 29.1217C58.3938 29.1217 58.7128 29.0353 58.9981 28.8627C59.2909 28.6825 59.5199 28.4347 59.685 28.1194C59.8577 27.8041 59.944 27.4475 59.944 27.0497ZM66.3941 29.4595C66.3941 29.6096 66.3416 29.7372 66.2365 29.8423C66.1389 29.9474 66.0112 30 65.8536 30C65.7034 30 65.5758 29.9474 65.4707 29.8423C65.3731 29.7372 65.3243 29.6096 65.3243 29.4595V24.5835C65.3243 24.4334 65.3731 24.3058 65.4707 24.2007C65.5758 24.0956 65.7034 24.043 65.8536 24.043C66.0112 24.043 66.1389 24.0956 66.2365 24.2007C66.3416 24.3058 66.3941 24.4334 66.3941 24.5835V29.4595ZM65.8536 23.2998C65.6359 23.2998 65.4782 23.2622 65.3806 23.1872C65.2906 23.1046 65.2455 22.977 65.2455 22.8043V22.6241C65.2455 22.444 65.2943 22.3163 65.3919 22.2413C65.497 22.1662 65.6547 22.1287 65.8649 22.1287C66.0751 22.1287 66.2252 22.1699 66.3153 22.2525C66.4129 22.3276 66.4617 22.4515 66.4617 22.6241V22.8043C66.4617 22.9845 66.4129 23.1121 66.3153 23.1872C66.2177 23.2622 66.0638 23.2998 65.8536 23.2998ZM67.5941 29.0766C67.5265 28.9715 67.4928 28.8702 67.4928 28.7726C67.4928 28.6224 67.5716 28.4948 67.7292 28.3897C67.8043 28.3371 67.8906 28.3109 67.9882 28.3109C68.1234 28.3109 68.2472 28.3672 68.3599 28.4798C68.5851 28.735 68.8253 28.9265 69.0805 29.0541C69.3433 29.1817 69.6549 29.2455 70.0152 29.2455C70.3005 29.238 70.552 29.1742 70.7697 29.0541C70.9874 28.9265 71.0962 28.7238 71.0962 28.446C71.0962 28.1908 70.9836 27.9956 70.7584 27.8604C70.5407 27.7253 70.2179 27.6014 69.79 27.4888C69.3696 27.3762 69.0205 27.2599 68.7427 27.1397C68.465 27.0121 68.2285 26.8319 68.0333 26.5992C67.8456 26.359 67.7518 26.0474 67.7518 25.6646C67.7518 25.3267 67.8456 25.0302 68.0333 24.775C68.2285 24.5197 68.4837 24.3208 68.799 24.1781C69.1218 24.0355 69.4709 23.9642 69.8463 23.9642C70.2066 23.9642 70.5632 24.0317 70.9161 24.1669C71.2764 24.302 71.5692 24.5084 71.7944 24.7862C71.8845 24.8913 71.9295 25.0002 71.9295 25.1128C71.9295 25.2329 71.8695 25.3493 71.7494 25.4619C71.6743 25.5294 71.5805 25.5632 71.4679 25.5632C71.3327 25.5632 71.2239 25.5182 71.1413 25.4281C70.9836 25.2479 70.7884 25.109 70.5557 25.0114C70.3305 24.9138 70.079 24.865 69.8012 24.865C69.516 24.865 69.272 24.9251 69.0693 25.0452C68.8741 25.1578 68.7765 25.353 68.7765 25.6308C68.784 25.8935 68.8966 26.0887 69.1143 26.2163C69.3395 26.344 69.6811 26.4678 70.1391 26.588C70.537 26.6931 70.8673 26.8057 71.13 26.9258C71.3928 27.0459 71.6142 27.2261 71.7944 27.4663C71.9746 27.699 72.0647 28.0068 72.0647 28.3897C72.0647 28.7425 71.9633 29.0503 71.7606 29.3131C71.5579 29.5683 71.2914 29.7673 70.9611 29.9099C70.6383 30.045 70.293 30.1126 69.9251 30.1126C69.4522 30.1126 69.013 30.03 68.6076 29.8649C68.2097 29.6997 67.8719 29.437 67.5941 29.0766ZM77.4351 29.4595C77.4351 29.6096 77.3825 29.7372 77.2774 29.8423C77.1798 29.9474 77.0522 30 76.8945 30C76.7444 30 76.6168 29.9474 76.5117 29.8423C76.4141 29.7372 76.3653 29.6096 76.3653 29.4595V24.5835C76.3653 24.4334 76.4141 24.3058 76.5117 24.2007C76.6168 24.0956 76.7444 24.043 76.8945 24.043C77.0522 24.043 77.1798 24.0956 77.2774 24.2007C77.3825 24.3058 77.4351 24.4334 77.4351 24.5835V29.4595ZM76.8945 23.2998C76.6768 23.2998 76.5192 23.2622 76.4216 23.1872C76.3315 23.1046 76.2864 22.977 76.2864 22.8043V22.6241C76.2864 22.444 76.3352 22.3163 76.4328 22.2413C76.5379 22.1662 76.6956 22.1287 76.9058 22.1287C77.116 22.1287 77.2661 22.1699 77.3562 22.2525C77.4538 22.3276 77.5026 22.4515 77.5026 22.6241V22.8043C77.5026 22.9845 77.4538 23.1121 77.3562 23.1872C77.2586 23.2622 77.1047 23.2998 76.8945 23.2998ZM81.9795 23.9642C83.3308 23.9642 84.0065 24.775 84.0065 26.3965V29.4595C84.0065 29.6096 83.9539 29.7372 83.8488 29.8423C83.7512 29.9474 83.6236 30 83.4659 30C83.3158 30 83.1882 29.9474 83.0831 29.8423C82.9855 29.7372 82.9367 29.6096 82.9367 29.4595V26.4078C82.9367 25.9649 82.8353 25.612 82.6326 25.3493C82.4299 25.0865 82.0996 24.9551 81.6417 24.9551C81.3414 24.9551 81.0674 25.0227 80.8196 25.1578C80.5794 25.2854 80.388 25.4619 80.2453 25.6871C80.1102 25.9048 80.0426 26.145 80.0426 26.4078V29.4595C80.0426 29.6096 79.9901 29.7372 79.885 29.8423C79.7874 29.9474 79.6598 30 79.5021 30C79.3445 30 79.2168 29.9512 79.1193 29.8536C79.0217 29.7485 78.9729 29.6171 78.9729 29.4595V24.6398C78.9729 24.4897 79.0217 24.3621 79.1193 24.257C79.2244 24.1519 79.352 24.0993 79.5021 24.0993C79.6598 24.0993 79.7874 24.1519 79.885 24.257C79.9901 24.3621 80.0426 24.4897 80.0426 24.6398V25.034C80.2378 24.7337 80.5081 24.4822 80.8534 24.2795C81.2063 24.0693 81.5816 23.9642 81.9795 23.9642ZM88.1715 23.9642C88.7646 23.9642 89.2563 24.058 89.6467 24.2457C90.0446 24.4334 90.2435 24.6736 90.2435 24.9664C90.2435 25.094 90.2022 25.2104 90.1196 25.3155C90.037 25.4131 89.9319 25.4619 89.8043 25.4619C89.7067 25.4619 89.6279 25.4469 89.5678 25.4168C89.5153 25.3868 89.4402 25.338 89.3426 25.2704C89.2976 25.2254 89.2263 25.1728 89.1287 25.1128C89.0386 25.0677 88.911 25.0302 88.7458 25.0002C88.5806 24.9701 88.4305 24.9551 88.2954 24.9551C87.905 24.9551 87.5597 25.0452 87.2594 25.2254C86.9591 25.4056 86.7264 25.6571 86.5612 25.9799C86.396 26.2952 86.3135 26.648 86.3135 27.0384C86.3135 27.4363 86.3923 27.7929 86.5499 28.1082C86.7151 28.4235 86.9441 28.6712 87.2368 28.8514C87.5296 29.0316 87.8637 29.1217 88.2391 29.1217C88.6294 29.1217 88.9447 29.0616 89.185 28.9415C89.2375 28.9114 89.3088 28.8627 89.3989 28.7951C89.474 28.735 89.5378 28.69 89.5904 28.66C89.6504 28.6299 89.7217 28.6149 89.8043 28.6149C89.9545 28.6149 90.0708 28.6637 90.1534 28.7613C90.2435 28.8514 90.2885 28.9715 90.2885 29.1217C90.2885 29.2793 90.1872 29.437 89.9845 29.5946C89.7893 29.7448 89.5228 29.8686 89.185 29.9662C88.8547 30.0638 88.4981 30.1126 88.1152 30.1126C87.5446 30.1126 87.0417 29.9812 86.6062 29.7185C86.1708 29.4482 85.833 29.0804 85.5928 28.6149C85.36 28.142 85.2437 27.6164 85.2437 27.0384C85.2437 26.4603 85.3675 25.9386 85.6153 25.4731C85.863 25.0002 86.2084 24.6323 86.6513 24.3696C87.0942 24.0993 87.6009 23.9642 88.1715 23.9642ZM96.9738 27.0497C96.9738 27.6352 96.8424 28.1607 96.5797 28.6262C96.3169 29.0916 95.9566 29.4557 95.4986 29.7185C95.0482 29.9812 94.549 30.1126 94.0009 30.1126C93.4529 30.1126 92.9499 29.9812 92.492 29.7185C92.0415 29.4557 91.6849 29.0916 91.4222 28.6262C91.1594 28.1607 91.0281 27.6352 91.0281 27.0497C91.0281 26.4641 91.1594 25.9348 91.4222 25.4619C91.6849 24.9889 92.0415 24.6211 92.492 24.3583C92.9499 24.0956 93.4529 23.9642 94.0009 23.9642C94.549 23.9642 95.0482 24.0956 95.4986 24.3583C95.9566 24.6211 96.3169 24.9889 96.5797 25.4619C96.8424 25.9348 96.9738 26.4641 96.9738 27.0497ZM95.904 27.0497C95.904 26.6443 95.8177 26.2839 95.645 25.9686C95.4799 25.6458 95.2509 25.3981 94.9581 25.2254C94.6728 25.0452 94.3538 24.9551 94.0009 24.9551C93.6481 24.9551 93.3253 25.0452 93.0325 25.2254C92.7472 25.3981 92.5183 25.6458 92.3456 25.9686C92.1804 26.2839 92.0978 26.6443 92.0978 27.0497C92.0978 27.4475 92.1804 27.8041 92.3456 28.1194C92.5183 28.4347 92.7472 28.6825 93.0325 28.8627C93.3253 29.0353 93.6481 29.1217 94.0009 29.1217C94.3538 29.1217 94.6728 29.0353 94.9581 28.8627C95.2509 28.6825 95.4799 28.4347 95.645 28.1194C95.8177 27.8041 95.904 27.4475 95.904 27.0497ZM104.985 23.998C106.299 23.998 106.956 24.8162 106.956 26.4528V29.4595C106.956 29.6171 106.907 29.7485 106.81 29.8536C106.712 29.9512 106.584 30 106.427 30C106.269 30 106.138 29.9474 106.033 29.8423C105.935 29.7372 105.886 29.6096 105.886 29.4595V26.4641C105.886 25.4806 105.473 24.9889 104.647 24.9889C104.355 24.9889 104.088 25.0565 103.848 25.1916C103.615 25.3192 103.431 25.4957 103.296 25.7209C103.169 25.9461 103.105 26.1938 103.105 26.4641V29.4595C103.105 29.6096 103.052 29.7372 102.947 29.8423C102.849 29.9474 102.722 30 102.564 30C102.407 30 102.279 29.9512 102.181 29.8536C102.084 29.7485 102.035 29.6171 102.035 29.4595V26.4528C102.035 26.0099 101.941 25.6571 101.753 25.3943C101.566 25.124 101.254 24.9889 100.819 24.9889C100.376 24.9889 100.008 25.1316 99.7152 25.4168C99.4299 25.6946 99.2873 26.0399 99.2873 26.4528V29.4595C99.2873 29.6096 99.2347 29.7372 99.1296 29.8423C99.032 29.9474 98.9044 30 98.7468 30C98.5891 30 98.4615 29.9512 98.3639 29.8536C98.2663 29.7485 98.2175 29.6171 98.2175 29.4595V24.6398C98.2175 24.4897 98.2663 24.3621 98.3639 24.257C98.469 24.1519 98.5966 24.0993 98.7468 24.0993C98.9044 24.0993 99.032 24.1519 99.1296 24.257C99.2347 24.3621 99.2873 24.4897 99.2873 24.6398V25.034C99.4825 24.7412 99.7415 24.4972 100.064 24.302C100.395 24.0993 100.751 23.998 101.134 23.998C102.065 23.998 102.669 24.4109 102.947 25.2367C103.112 24.9213 103.386 24.6361 103.769 24.3808C104.152 24.1256 104.557 23.998 104.985 23.998ZM111.516 23.998C112.027 23.998 112.488 24.1293 112.901 24.3921C113.314 24.6473 113.637 25.0077 113.87 25.4731C114.11 25.9386 114.23 26.4641 114.23 27.0497C114.23 27.6352 114.11 28.1607 113.87 28.6262C113.637 29.0841 113.314 29.4445 112.901 29.7072C112.488 29.97 112.034 30.1013 111.539 30.1013C111.148 30.1013 110.784 30.015 110.446 29.8423C110.109 29.6697 109.835 29.4595 109.624 29.2117V31.7117C109.624 31.8618 109.572 31.9894 109.467 32.0945C109.369 32.1996 109.242 32.2522 109.084 32.2522C108.934 32.2522 108.806 32.1996 108.701 32.0945C108.603 31.9969 108.555 31.8693 108.555 31.7117V24.6286C108.555 24.4709 108.603 24.3395 108.701 24.2344C108.799 24.1293 108.926 24.0768 109.084 24.0768C109.242 24.0768 109.369 24.1293 109.467 24.2344C109.572 24.3395 109.624 24.4709 109.624 24.6286V24.9551C109.805 24.6924 110.067 24.4672 110.413 24.2795C110.758 24.0918 111.126 23.998 111.516 23.998ZM111.392 29.1104C111.738 29.1104 112.049 29.0203 112.327 28.8401C112.605 28.66 112.819 28.416 112.969 28.1082C113.127 27.7929 113.205 27.44 113.205 27.0497C113.205 26.6593 113.127 26.3102 112.969 26.0024C112.819 25.6871 112.605 25.4393 112.327 25.2592C112.049 25.079 111.738 24.9889 111.392 24.9889C111.04 24.9889 110.724 25.079 110.446 25.2592C110.169 25.4318 109.951 25.6758 109.793 25.9911C109.643 26.3064 109.568 26.6593 109.568 27.0497C109.568 27.44 109.643 27.7929 109.793 28.1082C109.951 28.4235 110.169 28.6712 110.446 28.8514C110.724 29.0241 111.04 29.1104 111.392 29.1104ZM116.632 29.4595C116.632 29.6096 116.579 29.7372 116.474 29.8423C116.369 29.9474 116.241 30 116.091 30C115.941 30 115.813 29.9474 115.708 29.8423C115.611 29.7372 115.562 29.6096 115.562 29.4595V22.2075C115.562 22.0573 115.614 21.9297 115.719 21.8246C115.825 21.7195 115.952 21.667 116.102 21.667C116.252 21.667 116.376 21.7195 116.474 21.8246C116.579 21.9297 116.632 22.0573 116.632 22.2075V29.4595ZM123.39 26.8244C123.382 26.9596 123.326 27.0759 123.221 27.1735C123.116 27.2636 122.992 27.3087 122.849 27.3087H118.886C118.938 27.8567 119.145 28.2959 119.505 28.6262C119.873 28.9565 120.319 29.1217 120.845 29.1217C121.205 29.1217 121.498 29.0691 121.723 28.964C121.949 28.8589 122.148 28.7238 122.32 28.5586C122.433 28.491 122.542 28.4573 122.647 28.4573C122.774 28.4573 122.879 28.5023 122.962 28.5924C123.052 28.6825 123.097 28.7876 123.097 28.9077C123.097 29.0653 123.022 29.208 122.872 29.3356C122.654 29.5533 122.365 29.7372 122.005 29.8874C121.645 30.0375 121.277 30.1126 120.901 30.1126C120.293 30.1126 119.756 29.985 119.291 29.7297C118.833 29.4745 118.476 29.1179 118.221 28.66C117.973 28.202 117.85 27.684 117.85 27.106C117.85 26.4753 117.977 25.9236 118.232 25.4506C118.495 24.9701 118.837 24.6023 119.257 24.347C119.685 24.0918 120.143 23.9642 120.631 23.9642C121.112 23.9642 121.562 24.088 121.982 24.3358C122.403 24.5835 122.741 24.9251 122.996 25.3605C123.251 25.7959 123.382 26.2839 123.39 26.8244ZM120.631 24.9551C120.211 24.9551 119.847 25.0752 119.539 25.3155C119.231 25.5482 119.028 25.9123 118.931 26.4078H122.253V26.3177C122.215 25.9198 122.035 25.5932 121.712 25.338C121.397 25.0828 121.036 24.9551 120.631 24.9551ZM126.231 25.1466V28.5023C126.231 28.8777 126.4 29.0653 126.738 29.0653C126.791 29.0653 126.862 29.0541 126.952 29.0316C127.042 29.0015 127.113 28.9865 127.166 28.9865C127.263 28.9865 127.346 29.0278 127.414 29.1104C127.481 29.193 127.515 29.2981 127.515 29.4257C127.515 29.5833 127.425 29.7185 127.245 29.8311C127.065 29.9437 126.862 30 126.637 30C126.389 30 126.16 29.9737 125.95 29.9212C125.747 29.8686 125.563 29.7372 125.398 29.527C125.24 29.3093 125.161 28.9828 125.161 28.5473V25.1466H124.508C124.366 25.1466 124.246 25.1015 124.148 25.0114C124.058 24.9138 124.013 24.7937 124.013 24.6511C124.013 24.5084 124.058 24.3921 124.148 24.302C124.246 24.2119 124.366 24.1669 124.508 24.1669H125.161V23.221C125.161 23.0708 125.21 22.9432 125.308 22.8381C125.413 22.733 125.544 22.6804 125.702 22.6804C125.852 22.6804 125.976 22.733 126.074 22.8381C126.179 22.9432 126.231 23.0708 126.231 23.221V24.1669H127.166C127.309 24.1669 127.425 24.2157 127.515 24.3133C127.613 24.4033 127.661 24.5197 127.661 24.6623C127.661 24.805 127.613 24.9213 127.515 25.0114C127.425 25.1015 127.309 25.1466 127.166 25.1466H126.231ZM134.035 26.8244C134.027 26.9596 133.971 27.0759 133.866 27.1735C133.761 27.2636 133.637 27.3087 133.494 27.3087H129.531C129.583 27.8567 129.79 28.2959 130.15 28.6262C130.518 28.9565 130.965 29.1217 131.49 29.1217C131.85 29.1217 132.143 29.0691 132.368 28.964C132.594 28.8589 132.793 28.7238 132.965 28.5586C133.078 28.491 133.187 28.4573 133.292 28.4573C133.419 28.4573 133.525 28.5023 133.607 28.5924C133.697 28.6825 133.742 28.7876 133.742 28.9077C133.742 29.0653 133.667 29.208 133.517 29.3356C133.299 29.5533 133.01 29.7372 132.65 29.8874C132.29 30.0375 131.922 30.1126 131.546 30.1126C130.938 30.1126 130.401 29.985 129.936 29.7297C129.478 29.4745 129.122 29.1179 128.866 28.66C128.619 28.202 128.495 27.684 128.495 27.106C128.495 26.4753 128.622 25.9236 128.878 25.4506C129.14 24.9701 129.482 24.6023 129.902 24.347C130.33 24.0918 130.788 23.9642 131.276 23.9642C131.757 23.9642 132.207 24.088 132.627 24.3358C133.048 24.5835 133.386 24.9251 133.641 25.3605C133.896 25.7959 134.027 26.2839 134.035 26.8244ZM131.276 24.9551C130.856 24.9551 130.492 25.0752 130.184 25.3155C129.876 25.5482 129.673 25.9123 129.576 26.4078H132.898V26.3177C132.86 25.9198 132.68 25.5932 132.357 25.338C132.042 25.0828 131.681 24.9551 131.276 24.9551Z" fill="white"/>
</svg>
